# xmcd CD database file
#
# Track frame offsets:
#	150
#	16126
#	30371
#	43871
#	60767
#	70620
#	82215
#	92054
#	103621
#	116894
#
# Disc length: 1791 seconds
#
# Revision: 0
# Processed by: cddbd v1.5.2PL0 Copyright (c) Steve Scherf et al.
# Submitted via: CDex 1.70beta3
#
DISCID=7606fd0a
DTITLE=The John Danser Octet - The Danser Revolution
DYEAR=1977
DGENRE=Jazz
TTITLE0=Revelli Rock
TTITLE1=Hullabaloo
TTITLE2=Carmina
TTITLE3=Talkin' Pretty - Michelle
TTITLE4=Boo Be Da
TTITLE5=Monkey
TTITLE6=Jazz Waltz
TTITLE7=Five × Five
TTITLE8=Sleigh Ride
TTITLE9=Cool
EXTD=YEAR: 1977
EXTT0=
EXTT1=
EXTT2=
EXTT3=
EXTT4=
EXTT5=
EXTT6=
EXTT7=
EXTT8=
EXTT9=
PLAYORDER=
